# xmcd CD database file
#
# Track frame offsets:
#	150
#	63617
#	122075
#	157560
#	204595
#	253317
#
# Disc length: 3781 seconds
#
# Revision: 1
# Processed by: cddbd v1.5.2PL0 Copyright (c) Steve Scherf et al.
# Submitted via: CDex 1.70beta2
#
DISCID=4f0ec306
DTITLE=ケロQ - モエかん-萌えっ娘メイド日記-
DYEAR=2004
DGENRE=Anime
TTITLE0=リニア・日記ファイル「もう一度、あなたに笑顔を・・・」
TTITLE1=霧島・日記ファイル「私もお世話されたいでちゅ！」
TTITLE2=冬葉・日記ファイル「私の童話で元気になってくださいねっ」
TTITLE3=鈴希・日記ファイル「夏祭りの思い出」
TTITLE4=謎の侵入者（？）・日記ファイル「忍び込んだ黒猫」
TTITLE5=キャストスペシャルインタビュー
EXTD=YEAR: 2004
EXTT0=
EXTT1=
EXTT2=
EXTT3=
EXTT4=
EXTT5=
PLAYORDER=
